<?xml version="1.0" encoding="utf-8"?>
<!-- Generator: Adobe Illustrator 21.0.0, SVG Export Plug-In . SVG Version: 6.00 Build 0)  -->
<svg version="1.1" baseProfile="basic" id="Réteg_1"
	 xmlns="http://www.w3.org/2000/svg" xmlns:xlink="http://www.w3.org/1999/xlink" x="0px" y="0px" viewBox="0 0 593 174"
	 xml:space="preserve">
<style type="text/css">
	.st0{fill:#4D4D4D;}
</style>
<g>
	<polygon class="st0" points="215.1,117.1 321.4,117.1 321.4,82.7 249.5,82.7 249.5,56 347.8,56 347.8,117.1 382.2,117.1 
		382.2,21.6 215.1,21.6 	"/>
	<path class="st0" d="M59.9,99.9c0-24.2,19.7-43.9,43.9-43.9h53.9v61.1h34.4V21.6h-88.3c-43.2,0-78.3,35.1-78.3,78.3v17.2h34.4V99.9
		z"/>
	<path class="st0" d="M572.1,69.3c0-26.3-21.4-47.7-47.7-47.7H405V117h31.6l87.8,0.1c12.7,0,24.7-5,33.7-14S572.1,82.1,572.1,69.3z
		 M533.8,78.7c-2.5,2.5-5.9,3.9-9.4,3.9l-85-0.1V56h85c7.3,0,13.3,6,13.3,13.3C537.7,72.9,536.3,76.2,533.8,78.7z"/>
	<path class="st0" d="M331.9,145.1h-6.4v0.1h-10.9c-5.2,0-9.5,4.2-9.5,9.5v0.8h1.6v-0.8c0-4.4,3.6-8,8-8h9.4v8.8h1.5v-8.8h6.3
		c4.4,0,8,3.6,8,8v0.8h1.5v-0.9C341.4,149.4,337.2,145.1,331.9,145.1z"/>
	<path class="st0" d="M291.8,145.1h-4.3v1.6h4.3c4.4,0,8,3.6,8,8v0.8h1.5v-0.9C301.3,149.4,297.1,145.1,291.8,145.1z"/>
	<path class="st0" d="M248.5,145.2c-5.2,0-9.5,4.2-9.5,9.5v0.8h1.6v-0.8c0-4.4,3.6-8,8-8h9.4v8.8h1.5v-10.3H248.5z"/>
	<path class="st0" d="M231.4,145.2h-13.8V141H216v14.5h15.4c2.9,0,5.2-2.4,5.2-5.1c0-1.4-0.5-2.7-1.5-3.7S232.8,145.2,231.4,145.2z
		 M231.4,153.9h-13.7v-7.1h13.8c0.9,0,1.8,0.3,2.5,1c0.6,0.6,1,1.5,1,2.5C235,152.3,233.4,153.9,231.4,153.9z"/>
	<path class="st0" d="M371,146v-0.8h-1.6v0.8c0,5.2,4.2,9.5,9.5,9.5h3.1h0.1V154H379C374.6,154,371,150.4,371,146z"/>
	<polygon class="st0" points="263.2,155.5 283.8,155.5 283.8,149.3 282.2,149.3 282.2,153.9 264.8,153.9 264.8,146.7 283.8,146.7 
		283.8,145.1 263.2,145.1 	"/>
	<polygon class="st0" points="345.1,155.5 357.8,155.5 357.8,153.9 346.7,153.9 346.7,146.7 364.1,146.7 364.1,155.5 365.7,155.5 
		365.7,145.1 345.1,145.1 	"/>
	<polygon class="st0" points="191.5,155.5 204.2,155.5 204.2,153.9 193.1,153.9 193.1,146.7 210.5,146.7 210.5,155.5 212.1,155.5 
		212.1,145.1 191.5,145.1 	"/>
	<path class="st0" d="M490.2,150.2c0-0.9,0.4-1.8,1.1-2.5c0.6-0.6,1.5-1,2.5-1h13v-1.6h-13c-1.4,0-2.7,0.5-3.7,1.5s-1.5,2.3-1.5,3.7
		c0,2.9,2.4,5.2,5.2,5.2h13.3v-1.7h-13.3C491.8,153.8,490.2,152.2,490.2,150.2z"/>
	<path class="st0" d="M571,146.7c-1-1-2.3-1.5-3.7-1.5h-15.4v10.3h15.4c2.9,0,5.2-2.4,5.2-5.1C572.5,149,572,147.7,571,146.7z
		 M567.3,153.9h-13.8v-7.1h13.8c0.9,0,1.8,0.3,2.5,1c0.7,0.6,1.1,1.5,1.1,2.5C570.9,152.3,569.3,153.9,567.3,153.9z"/>
	<path class="st0" d="M414.6,145.2h-15.4v10.3h15.4c2.9,0,5.2-2.4,5.2-5.1c0-1.4-0.5-2.7-1.5-3.7S416,145.2,414.6,145.2z
		 M414.6,153.9h-13.8v-7.1h13.8c0.9,0,1.8,0.3,2.5,1c0.7,0.6,1.1,1.5,1.1,2.5C418.2,152.3,416.6,153.9,414.6,153.9z"/>
	<path class="st0" d="M512.9,146.7h6.9v-1.6h-6.9V142h-1.6v4c0,5.2,4.2,9.5,9.5,9.5h3.1h0.1V154h-3.1
		C516.7,154,513.3,150.8,512.9,146.7z"/>
	<path class="st0" d="M449.7,146.7h6.9v-1.6h-6.9V142h-1.6v4c0,5.2,4.2,9.5,9.5,9.5h3.1h0.1V154h-3.1
		C453.5,154,450.1,150.8,449.7,146.7z"/>
	<path class="st0" d="M542.6,145.2h-15.3v7.2c0,1.7,1.4,3.1,3.1,3.1h17h0.1v-1.7h-17c-0.8,0-1.5-0.7-1.5-1.5v-5.6h13.5
		c1.8,0,3.3,1.2,3.7,2.9h-8.5v1.6l10.2,0.1v-0.8C547.9,147.6,545.5,145.2,542.6,145.2z"/>
	<path class="st0" d="M479.4,145.2h-15.3v7.2c0,1.7,1.4,3.1,3.1,3.1h16.9v-1.7h-17c-0.8,0-1.5-0.7-1.5-1.5v-5.6h13.7
		c1.8,0,3.3,1.2,3.7,2.9h-8.5v1.6l10.2,0.1v-0.8C484.7,147.6,482.3,145.2,479.4,145.2z"/>
	<path class="st0" d="M439.5,145.2h-15.3v7.2c0,1.7,1.4,3.1,3.1,3.1h16.9v-1.7h-17c-0.8,0-1.5-0.7-1.5-1.5v-5.6h13.7
		c1.8,0,3.3,1.2,3.7,2.9h-8.5v1.6l10.2,0.1v-0.8C444.8,147.6,442.4,145.2,439.5,145.2z"/>
	<path class="st0" d="M138,145.2c-5.2,0-9.5,4.2-9.5,9.5v0.8h1.6v-0.8c0-4.4,3.6-8,8-8h9.4v8.8h1.5v-10.3H138z"/>
	<path class="st0" d="M99.4,145.2h-9.3V142h-1.6v3.2h-0.1v10.3H90v-6h0.1v-2.8h9.3c4.4,0,8,3.6,8,8v0.8h1.5v-0.8
		C108.9,149.5,104.7,145.2,99.4,145.2z"/>
	<path class="st0" d="M33,145.2c-5.2,0-9.5,4.2-9.5,9.5v0.8h1.6v-0.8c0-4.4,3.6-8,8-8h9.4v8.8H44v-10.3H33z"/>
	<path class="st0" d="M73.4,146.7h6.9v-1.6h-6.9V142h-1.6v4c0,5.2,4.2,9.5,9.5,9.5h3.1h0.1V154h-3.1C77.2,154,73.8,150.8,73.4,146.7
		z"/>
	<path class="st0" d="M123.8,145.9c0,4.4-3.6,8-8,8h-3.1v1.6h3.1c5.3,0,9.6-4.3,9.6-9.6v-0.8h-1.6V145.9z"/>
	<polygon class="st0" points="152.7,155.5 173.3,155.5 173.3,149.3 165,149.3 165,150.9 171.7,150.9 171.7,153.9 154.3,153.9 
		154.3,146.7 173.3,146.7 173.3,145.1 152.7,145.1 	"/>
	<polygon class="st0" points="47.7,155.5 68.3,155.5 68.3,149.3 66.7,149.3 66.7,153.9 49.3,153.9 49.3,146.7 68.3,146.7 
		68.3,145.1 47.7,145.1 	"/>
</g>
</svg>
